<?xml version="1.0" encoding="iso-8859-1"?>
<!-- Uploaded to: SVG Repo, www.svgrepo.com, Generator: SVG Repo Mixer Tools -->
<svg version="1.1" id="Layer_1" xmlns="http://www.w3.org/2000/svg" xmlns:xlink="http://www.w3.org/1999/xlink" 
	 viewBox="0 0 398.341 398.341" xml:space="preserve">
<g>
	<circle style="fill:#666666;" cx="293.706" cy="18.159" r="16.258"/>
	<path style="fill:#FFDE55;" d="M357.83,229.529c40.788-75.667,12.514-170.072-63.153-210.861S124.604,6.154,83.816,81.821
		L357.83,229.529z"/>
	<path style="fill:#57C3FF;" d="M310.122,203.812c40.788-75.667,33.873-158.559-15.446-185.144s-122.365,13.203-163.154,88.869
		L310.122,203.812z"/>
	<path style="fill:#FFDE55;" d="M250.336,171.584c40.788-75.667,60.64-144.13,44.341-152.916
		c-16.3-8.786-62.579,45.431-103.367,121.097L250.336,171.584z"/>
	
		<rect x="147.798" y="139.834" transform="matrix(-0.8803 -0.4745 0.4745 -0.8803 168.0029 586.7584)" style="fill:#999999;" width="20.474" height="264.694"/>
	<polygon style="fill:#666666;" points="191.67,231.33 157.689,251.222 211.812,150.818 229.833,160.532 	"/>
	<g>
		<path style="fill:#FCEBA2;" d="M198.955,398.341c-22.319-23.302-53.742-37.814-88.556-37.814s-66.237,14.512-88.556,37.814
			H198.955z"/>
		<path style="fill:#D6BB4C;" d="M95.006,398.341c-6.479-22.744,15.393-37.818,15.393-37.818c-34.814,0-66.237,14.512-88.556,37.814
			C21.842,398.337,77.324,398.341,95.006,398.341z"/>
	</g>
</g>
</svg>