<?xml version="1.0" standalone="no"?>
<!DOCTYPE svg PUBLIC "-//W3C//DTD SVG 20010904//EN"
 "http://www.w3.org/TR/2001/REC-SVG-20010904/DTD/svg10.dtd">
<svg version="1.0" xmlns="http://www.w3.org/2000/svg"
 width="16.000000pt" height="16.000000pt" viewBox="0 0 16.000000 16.000000"
 preserveAspectRatio="xMidYMid meet">

<g transform="translate(0.000000,16.000000) scale(0.100000,-0.100000)"
fill="#000000" stroke="none">
<path d="M35 140 c3 -5 1 -10 -6 -10 -8 0 -8 -4 1 -15 7 -8 16 -13 20 -10 11
7 0 45 -12 45 -5 0 -6 -4 -3 -10z"/>
<path d="M134 86 c5 -16 4 -17 -9 -6 -9 7 -18 10 -21 7 -9 -9 5 -27 21 -27 20
0 29 20 15 33 -10 10 -12 8 -6 -7z"/>
</g>
</svg>
